<svg version="1" xmlns="http://www.w3.org/2000/svg" width="682.667" height="682.667" viewBox="0 0 512.000000 512.000000"><path d="M41 256v160h430V96H41v160zm389.2-107.3c8.8 8.8 11.8 12.4 11.8 14.3 0 3.7-170.3 174-174 174-2 0-9.7-7.2-35.5-33l-33-33-49.5 49.5c-42.8 42.8-49.9 49.5-52.5 49.5-2.4 0-4.9-2-14.2-11.3-8.3-8.3-11.3-12-11.3-13.8 0-1.9 13.8-16.2 62.8-65.2 40.9-40.9 63.4-62.7 64.7-62.7 1.3 0 13.8 11.8 35.2 33.2l33.3 33.3 73.3-73.3c47.4-47.3 73.9-73.2 75.2-73.2 1.2 0 6.7 4.7 13.7 11.7z"/></svg>